<svg id="archived" width="30" height="30" viewBox="0 0 30 30" stroke="#787878"><path id="Path_22175" data-name="Path 22175" d="M27.715,8.754,26,6.675A1.883,1.883,0,0,0,24.565,6H9.713a1.861,1.861,0,0,0-1.43.675L6.569,8.754A2.452,2.452,0,0,0,6,10.332V25.8a2.475,2.475,0,0,0,2.475,2.475H25.8A2.475,2.475,0,0,0,28.278,25.8V10.332A2.482,2.482,0,0,0,27.715,8.754ZM17.139,23.946l-6.807-6.807h4.332V14.664h4.951v2.475h4.332ZM8.63,8.475,9.639,7.238H24.491l1.157,1.238Z" transform="translate(-2.139 -2.139)" fill="none" stroke="current" stroke-width="2"></path><path id="Path_22176" data-name="Path 22176" d="M0,0H30V30H0Z" fill="none" stroke="none"></path></svg>