<svg width="26.115" height="37.5" viewBox="0 0 26.115 37.5" fill="#663785" stroke="#663785"><g id="RPA-Queue" transform="translate(0.25 0.25)"><path id="Path_17895" data-name="Path 17895" d="M43.235,26.767a2.407,2.407,0,0,0,2.388-2.42v-.12h1.893a.543.543,0,0,0,.539-.546V16.332a.543.543,0,0,0-.539-.546H45.623v-.12a2.407,2.407,0,0,0-2.388-2.419H36.712V11.1A3.37,3.37,0,0,0,38.474,7.33a3.3,3.3,0,0,0-6.453,0A3.37,3.37,0,0,0,33.784,11.1v2.145H27.261a2.407,2.407,0,0,0-2.388,2.42v.12H22.979a.543.543,0,0,0-.539.546v7.348a.543.543,0,0,0,.539.546h1.893v.12a2.407,2.407,0,0,0,2.388,2.42h3.75v1.66H24.829a2.407,2.407,0,0,0-2.388,2.42V41.189a.543.543,0,0,0,.539.546H47.515a.543.543,0,0,0,.539-.546V30.846a2.407,2.407,0,0,0-2.388-2.42H39.485v-1.66Zm3.742-9.889v6.256H45.623V16.878ZM33.013,8.1a2.234,2.234,0,1,1,2.234,2.263A2.249,2.249,0,0,1,33.013,8.1Zm1.849,3.331a3.021,3.021,0,0,0,.77,0v1.82h-.77ZM23.519,23.135V16.878h1.354v6.256Zm2.432,1.213V15.666a1.32,1.32,0,0,1,1.31-1.327H43.235a1.32,1.32,0,0,1,1.31,1.327v8.682a1.32,1.32,0,0,1-1.31,1.327H38.961l-.015,0a.047.047,0,0,0-.015,0H31.566l-.015,0a.047.047,0,0,0-.015,0H27.261A1.32,1.32,0,0,1,25.951,24.348Zm15.691,16.3H28.853V36.135H41.642Zm5.334-9.8v9.8H42.721V35.589a.543.543,0,0,0-.539-.546H28.313a.543.543,0,0,0-.539.546v5.054H23.519v-9.8a1.32,1.32,0,0,1,1.31-1.327H45.666A1.32,1.32,0,0,1,46.976,30.846Zm-8.57-2.42H32.089v-1.66h6.318Z" transform="translate(-22.44 -4.735)" fill="current" stroke="current" stroke-width="0.5"></path><path id="Path_17896" data-name="Path 17896" d="M44.528,44.319a2.389,2.389,0,1,0-2.389,2.42A2.4,2.4,0,0,0,44.528,44.319Zm-2.389,1.327a1.327,1.327,0,1,1,1.31-1.327A1.318,1.318,0,0,1,42.139,45.646Z" transform="translate(-34.416 -30.297)" fill="current" stroke="current" stroke-width="0.5"></path><path id="Path_17897" data-name="Path 17897" d="M75.138,46.739a2.42,2.42,0,1,0-2.388-2.42A2.4,2.4,0,0,0,75.138,46.739Zm0-3.746a1.327,1.327,0,1,1-1.31,1.327,1.318,1.318,0,0,1,1.31-1.327Z" transform="translate(-57.246 -30.297)" fill="current" stroke="current" stroke-width="0.5"></path><path id="Path_17898" data-name="Path 17898" d="M51.875,63.671a.543.543,0,0,0,.539.546h6.395a.546.546,0,0,0,0-1.093H52.414A.543.543,0,0,0,51.875,63.671Z" transform="translate(-42.804 -44.896)" fill="current" stroke="current" stroke-width="0.5"></path><path id="Path_17899" data-name="Path 17899" d="M91.522,89.587A1.483,1.483,0,1,0,90.058,88.1,1.473,1.473,0,0,0,91.522,89.587Zm0-1.873a.39.39,0,1,1-.385.39A.388.388,0,0,1,91.522,87.714Z" transform="translate(-69.22 -61.057)" fill="current" stroke="current" stroke-width="0.5"></path><path id="Path_17900" data-name="Path 17900" d="M28.442,88.1a1.464,1.464,0,1,0,1.464-1.483A1.473,1.473,0,0,0,28.442,88.1Zm1.464-.39a.39.39,0,1,1-.385.39A.388.388,0,0,1,29.906,87.714Z" transform="translate(-26.592 -61.057)" fill="current" stroke="current" stroke-width="0.5"></path></g></svg>