<svg width="26.459" height="26.4" viewBox="0 0 26.459 26.4" fill="#787878"><g id="decision-taken" transform="translate(0.2 0.2)"><path id="Path_17884" data-name="Path 17884" d="M11.916,26.008C5.346,26.008,0,20.176,0,13.008s5.346-13,11.916-13a11.168,11.168,0,0,1,6.428,2.055.937.937,0,0,1,.245,1.226.773.773,0,0,1-1.123.267,9.635,9.635,0,0,0-5.55-1.775c-5.674,0-10.291,5.037-10.291,11.227S6.242,24.235,11.916,24.235,22.208,19.2,22.208,13.008c0-.37-.016-.736-.048-1.1a.869.869,0,0,1,.73-.968.836.836,0,0,1,.887.8q.055.626.055,1.268c0,7.168-5.346,13-11.916,13Zm0,0" transform="translate(0 -0.008)" fill="current" stroke="#787878" stroke-width="0.4"></path><path id="Path_17885" data-name="Path 17885" d="M155.027,36.12a.774.774,0,0,1-.574-.26l-4.875-5.318a.945.945,0,0,1,0-1.254.766.766,0,0,1,1.149,0l4.3,4.692,11.341-12.373a.766.766,0,0,1,1.149,0,.945.945,0,0,1,0,1.254l-11.916,13A.781.781,0,0,1,155.027,36.12Zm0,0" transform="translate(-141.756 -20.166)" fill="current" stroke="#787878" stroke-width="0.4"></path></g></svg>