<svg id="In-drafts" width="24.819" height="30.168" viewBox="0 0 24.819 30.168" fill="#787878"><path id="Path_17786" data-name="Path 17786" d="M26.637,7.073,19.195.142A1.294,1.294,0,0,0,18.314-.2H5.291A3.011,3.011,0,0,0,2.183,2.7V27.072a3.012,3.012,0,0,0,3.108,2.9h18.6A3.012,3.012,0,0,0,27,27.072V7.894A1.134,1.134,0,0,0,26.637,7.073ZM4.679,2.7a.593.593,0,0,1,.613-.571H17.066V6.162a3.012,3.012,0,0,0,3.108,2.9h4.332V27.072a.593.593,0,0,1-.613.571H5.291a.593.593,0,0,1-.613-.571Zm15.5,4.036a.593.593,0,0,1-.613-.569V3.768l3.181,2.964Z" transform="translate(-2.183 0.2)" fill="current"></path><path id="Path_17787" data-name="Path 17787" d="M7,10.29H18.616a1.215,1.215,0,0,0,1.3-1.1,1.216,1.216,0,0,0-1.3-1.1H7a1.216,1.216,0,0,0-1.3,1.1A1.215,1.215,0,0,0,7,10.29Z" transform="translate(-0.397 4.216)" fill="current"></path><path id="Path_17788" data-name="Path 17788" d="M7,12.634H18.616a1.215,1.215,0,0,0,1.3-1.1,1.215,1.215,0,0,0-1.3-1.1H7a1.215,1.215,0,0,0-1.3,1.1A1.215,1.215,0,0,0,7,12.634Z" transform="translate(-0.397 5.353)" fill="current"></path><path id="Path_17789" data-name="Path 17789" d="M7,14.978H18.616a1.216,1.216,0,0,0,1.3-1.1,1.215,1.215,0,0,0-1.3-1.1H7a1.215,1.215,0,0,0-1.3,1.1A1.216,1.216,0,0,0,7,14.978Z" transform="translate(-0.397 6.49)" fill="current"></path><path id="Path_17790" data-name="Path 17790" d="M6.883,17.322h7.07a1.108,1.108,0,1,0,0-2.21H6.883a1.108,1.108,0,1,0,0,2.21Z" transform="translate(0.068 7.626)" fill="current"></path></svg>