<svg width="26.5" height="30.5" viewBox="0 0 26.5 30.5" fill="#663785" stroke="#663785"><g id="Held-Application" transform="translate(0.25 0.2)"><path id="Path_22208" data-name="Path 22208" d="M287.19,489.737a1.994,1.994,0,0,1,1.128-1.386c.422-.048.842-.1,1.266-.141.631.056.881.608,1.288.957a.306.306,0,0,0,.161.4,1.554,1.554,0,0,1-.288,1.725c-.276.086-.408.325-.577.525-.2.223-.464.152-.711.176a1.821,1.821,0,0,1-1.566-.506c-.15-.113-.25-.287-.44-.352a.885.885,0,0,1-.258-.574A1.557,1.557,0,0,0,287.19,489.737Z" transform="translate(-283.037 -467.302)" fill="current" stroke="current" stroke-width="0.5"></path><path id="Path_22209" data-name="Path 22209" d="M288.923,386.627c-.021.011-.05.017-.062.034-1,1.456-1.074,1.1-2.221-.162a.482.482,0,0,1,0-.748.5.5,0,0,1,.8.119c.339.659.6.334.9,0,.375-.409.755-.814,1.147-1.205.215-.214.421-.408.769-.12.371.3.245.552,0,.813s-.5.491-.755.735C289.223,386.183,289.087,386.422,288.923,386.627Z" transform="translate(-282.365 -371.385)" fill="current" stroke="current" stroke-width="0.5"></path><path id="Path_22210" data-name="Path 22210" d="M289.025,283.3a6.547,6.547,0,0,1,.583-.592c.215-.172.346.012.523.145.257.193.257.39.093.583-.27.316-.582.6-.876.892-.182.1-.386.184-.421.429-.056.076-.107.152-.168.222-1.043,1.157-1.174,1.151-2.137-.076-.2-.251-.532-.536-.2-.818.289-.247.646-.046.9.216.117.122.124.4.409.289l.586-.563A1.515,1.515,0,0,0,289.025,283.3Z" transform="translate(-282.197 -277.359)" fill="current" stroke="current" stroke-width="0.5"></path><path id="Path_22211" data-name="Path 22211" d="M367.6,320.8c-3.559.013-7.12.032-10.679.029-.408,0-.85.158-1.232-.13-.386-.385-.213-.634.207-.823l11.563-.013C367.781,320.133,368.241,320.385,367.6,320.8Z" transform="translate(-346.044 -311.754)" fill="current" stroke="current" stroke-width="0.5"></path><path id="Path_22212" data-name="Path 22212" d="M361.4,290.872l-5.892.031a.332.332,0,0,1-.309-.137c-.325-.265-.361-.51.055-.722.111-.165.287-.138.45-.138h5.346c.13,0,.294-.05.354.138a.2.2,0,0,1,.049.121C361.83,290.347,361.82,290.522,361.4,290.872Z" transform="translate(-345.559 -284.073)" fill="current" stroke="current" stroke-width="0.5"></path><path id="Path_22213" data-name="Path 22213" d="M367.853,415.933c-3.56.012-7.119.031-10.678.028-.409,0-.85.158-1.233-.13-.386-.385-.213-.634.208-.823L367.713,415C368.036,415.268,368.494,415.52,367.853,415.933Z" transform="translate(-346.278 -399.66)" fill="current" stroke="current" stroke-width="0.5"></path><path id="Path_22214" data-name="Path 22214" d="M361.646,385.95l-5.893.031a.323.323,0,0,1-.309-.137c-.326-.265-.361-.509.054-.721.112-.166.287-.139.451-.139h5.345c.131,0,.294-.051.354.138a.192.192,0,0,1,.049.122C362.079,385.425,362.065,385.6,361.646,385.95Z" transform="translate(-345.785 -371.92)" fill="current" stroke="current" stroke-width="0.5"></path><path id="Path_22215" data-name="Path 22215" d="M368.11,522.94c-3.56.012-7.12.032-10.679.029-.408,0-.85.157-1.232-.13-.386-.385-.213-.635.207-.824L367.969,522C368.291,522.276,368.751,522.528,368.11,522.94Z" transform="translate(-346.514 -498.523)" fill="current" stroke="current" stroke-width="0.5"></path><path id="Path_22216" data-name="Path 22216" d="M361.91,493.04l-5.892.032a.334.334,0,0,1-.309-.137c-.325-.265-.361-.51.055-.722.111-.166.287-.139.45-.139h5.346c.13,0,.294-.051.354.138a.2.2,0,0,1,.049.122C362.343,492.519,362.33,492.691,361.91,493.04Z" transform="translate(-346.029 -470.866)" fill="current" stroke="current" stroke-width="0.5"></path><path id="Path_22217" data-name="Path 22217" d="M295.516,530.36a3.792,3.792,0,0,0,1.578.576,1.376,1.376,0,0,1-1.6-.38A.15.15,0,0,1,295.516,530.36Z" transform="translate(-290.674 -506.247)" fill="current" stroke="current" stroke-width="0.5"></path><path id="Path_22218" data-name="Path 22218" d="M313.358,291.34a.756.756,0,0,1-.708.725Z" transform="translate(-306.529 -285.403)" fill="#570f87" stroke="current" stroke-width="0.5"></path><path id="Path_22219" data-name="Path 22219" d="M303.046,487.671a2.133,2.133,0,0,1-1.266.141A1.892,1.892,0,0,1,303.046,487.671Z" transform="translate(-296.499 -466.763)" fill="current" stroke="current" stroke-width="0.5"></path><path id="Path_22220" data-name="Path 22220" d="M325.72,529.182c.091-.282.175-.573.576-.526A1.1,1.1,0,0,1,325.72,529.182Z" transform="translate(-318.589 -504.668)" fill="current" stroke="current" stroke-width="0.5"></path><path id="Path_22221" data-name="Path 22221" d="M318.31,407.146c.083-.293.177-.573.576-.536A1.3,1.3,0,0,1,318.31,407.146Z" transform="translate(-311.752 -391.904)" fill="current" stroke="current" stroke-width="0.5"></path><path id="Path_22222" data-name="Path 22222" d="M332.953,501.158c-.039.054.034.192-.123.157.117-.194-.491-.338-.039-.555A.484.484,0,0,1,332.953,501.158Z" transform="translate(-324.957 -478.898)" fill="current" stroke="current" stroke-width="0.5"></path><path id="Path_22223" data-name="Path 22223" d="M287.19,508.29a.7.7,0,0,1,0,.823Z" transform="translate(-283.037 -485.855)" fill="#570f87" stroke="current" stroke-width="0.5"></path><path id="Path_22224" data-name="Path 22224" d="M290.988,526.51c-.008.066-.015.133-.022.2a.9.9,0,0,1-.406-.481C290.86,526.09,290.861,526.393,290.988,526.51Z" transform="translate(-286.147 -502.397)" fill="current" stroke="current" stroke-width="0.5"></path><path id="Path_22225" data-name="Path 22225" d="M300.2,304.779c.1.116.027.152-.077.138-.246-.033-.321-.208-.331-.427Z" transform="translate(-294.663 -297.553)" fill="current" stroke="current" stroke-width="0.5"></path><path id="Path_22226" data-name="Path 22226" d="M320.118,305.289c-.143-.413.19-.372.421-.429Z" transform="translate(-313.389 -297.895)" fill="current" stroke="current" stroke-width="0.5"></path><path id="Path_22227" data-name="Path 22227" d="M256.971,243.93H235.929a2.462,2.462,0,0,1-2.479-2.439V216.369a2.462,2.462,0,0,1,2.479-2.439h21.042a2.462,2.462,0,0,1,2.479,2.439v25.122A2.462,2.462,0,0,1,256.971,243.93Zm-21.042-29.049a1.52,1.52,0,0,0-1.069.436,1.472,1.472,0,0,0-.441,1.053v25.122a1.5,1.5,0,0,0,1.506,1.482h21.045a1.5,1.5,0,0,0,1.506-1.482V216.369a1.5,1.5,0,0,0-1.506-1.482Z" transform="translate(-233.45 -213.88)" fill="current" stroke="current" stroke-width="0.5"></path></g></svg>