<svg id="Pending-submission" width="25.67" height="26" viewBox="0 0 25.67 26" fill="#663785"><path id="Path_17775" data-name="Path 17775" d="M17.926,19.026a.852.852,0,0,1,.85-.851.8.8,0,0,0,.8-.8V14.948a.8.8,0,0,0-.8-.8.851.851,0,0,1-.85-.85.8.8,0,0,0-.8-.8H6.464a.8.8,0,0,0-.8.8.851.851,0,0,1-.849.851.8.8,0,0,0-.8.8v2.428a.8.8,0,0,0,.8.8.851.851,0,0,1,.85.85.8.8,0,0,0,.8.8H17.128A.8.8,0,0,0,17.926,19.026Zm-10.8-.8A2.452,2.452,0,0,0,5.615,16.71v-1.1A2.452,2.452,0,0,0,7.129,14.1h9.331a2.451,2.451,0,0,0,1.516,1.516v1.1a2.451,2.451,0,0,0-1.516,1.516Z" transform="translate(1.04 3.75)" fill="current"></path><path id="Path_17776" data-name="Path 17776" d="M25.8,13.677a1.871,1.871,0,0,0-1.868-1.869H19.034V10.4a3.6,3.6,0,0,0-3.6-3.6h-1.6a3.465,3.465,0,1,0-1.759,0H10.488a3.607,3.607,0,0,0-3.6,3.6v1.4H2a1.865,1.865,0,0,0-.107,3.727v9.6A.864.864,0,0,0,2.75,26H8.983a.863.863,0,0,0,0-1.725H3.614v-8.73h18.7v8.73H18.705a.863.863,0,1,0,0,1.725h4.468a.864.864,0,0,0,.863-.862v-9.6A1.866,1.866,0,0,0,25.8,13.677ZM12.962,1.724a1.743,1.743,0,1,1-1.743,1.743A1.747,1.747,0,0,1,12.962,1.724Zm10.217,12.1H2a.146.146,0,1,1,0-.291H23.929a.146.146,0,0,1,0,.291ZM10.487,8.529h4.95A1.878,1.878,0,0,1,17.31,10.4v1.4H16.5V11.1a.863.863,0,0,0-1.725,0v.706h-3.63V11.1a.863.863,0,0,0-1.725,0v.706H8.613V10.4A1.878,1.878,0,0,1,10.487,8.529Z" transform="translate(-0.127)" fill="current"></path></svg>