<svg width="27" height="27" viewBox="0 0 27 27" fill="#787878" stroke="#787878"><g id="queue" transform="translate(-2.5 -2.5)"><line id="Line_584" data-name="Line 584" x2="0.897" transform="translate(10.172 11.069)" fill="none" stroke="current" stroke-miterlimit="10" stroke-width="1"></line><line id="Line_585" data-name="Line 585" x2="0.897" transform="translate(11.966 11.069)" fill="none" stroke="current" stroke-miterlimit="10" stroke-width="1"></line><line id="Line_586" data-name="Line 586" x2="0.897" transform="translate(13.759 11.069)" fill="none" stroke="current" stroke-miterlimit="10" stroke-width="1"></line><line id="Line_587" data-name="Line 587" x2="0.897" transform="translate(15.552 11.069)" fill="none" stroke="current" stroke-miterlimit="10" stroke-width="1"></line><line id="Line_588" data-name="Line 588" x2="0.897" transform="translate(17.345 11.069)" fill="none" stroke="current" stroke-miterlimit="10" stroke-width="1"></line><line id="Line_589" data-name="Line 589" x2="0.897" transform="translate(19.138 11.069)" fill="none" stroke="current" stroke-miterlimit="10" stroke-width="1"></line><circle id="Ellipse_29" data-name="Ellipse 29" cx="1.793" cy="1.793" r="1.793" transform="translate(4.345 3)" fill="none" stroke="current" stroke-linecap="round" stroke-linejoin="round" stroke-width="1"></circle><path id="Path_22244" data-name="Path 22244" d="M9.465,20.172V31.379a1.345,1.345,0,0,1-2.69,0V24.655a1.9,1.9,0,0,0-.291-1.246,6.625,6.625,0,0,0-.95-.789,1.824,1.824,0,0,1-.551-1.551V14.345c0-.744,1-1.345,2.241-1.345s2.241.6,2.241,1.345v3.586" transform="translate(-1.085 -5.517)" fill="none" stroke="current" stroke-linejoin="round" stroke-width="1"></path><path id="Path_22246" data-name="Path 22246" d="M8.379,51.28c1.569.309,2.69,1.139,2.69,2.116,0,1.237-1.793,2.241-4.034,2.241S3,54.633,3,53.4c0-.977,1.121-1.793,2.69-2.116" transform="translate(0 -26.637)" fill="none" stroke="current" stroke-linejoin="round" stroke-width="1"></path><circle id="Ellipse_30" data-name="Ellipse 30" cx="1.793" cy="1.793" r="1.793" transform="translate(22.276 3)" fill="none" stroke="current" stroke-linecap="round" stroke-linejoin="round" stroke-width="1"></circle><path id="Path_22247" data-name="Path 22247" d="M49.465,20.172V14.345c0-.744-1-1.345-2.241-1.345s-2.241.6-2.241,1.345v6.724a1.824,1.824,0,0,0,.551,1.551,6.626,6.626,0,0,1,.95.789,1.9,1.9,0,0,1,.291,1.246v6.724a1.345,1.345,0,0,0,2.69,0V22.414" transform="translate(-23.154 -5.517)" fill="none" stroke="current" stroke-linecap="round" stroke-linejoin="round" stroke-width="1"></path><path id="Path_22248" data-name="Path 22248" d="M51.138,24.621a.932.932,0,0,1-.4-.094C49.076,23.693,48,21.093,48,17.9a.9.9,0,0,1,1.793,0c0,3.026,1.071,4.689,1.744,5.025a.9.9,0,0,1-.4,1.7Z" transform="translate(-24.828 -7.724)" fill="none" stroke="current" stroke-miterlimit="10" stroke-width="1"></path><path id="Path_22249" data-name="Path 22249" d="M48.379,51.28c1.569.309,2.69,1.139,2.69,2.116,0,1.237-1.793,2.241-4.034,2.241S43,54.633,43,53.4c0-.977,1.121-1.793,2.69-2.116" transform="translate(-22.069 -26.637)" fill="none" stroke="current" stroke-linejoin="round" stroke-width="1"></path><path id="Path_22250" data-name="Path 22250" d="M7.933,1.207,6.781.056A.192.192,0,0,0,6.645,0H3.576A.576.576,0,0,0,3,.576V5.564a.576.576,0,0,0,.576.576H7.413a.576.576,0,0,0,.576-.576V1.343a.192.192,0,0,0-.056-.136ZM7.6,5.564a.192.192,0,0,1-.192.192H3.576a.192.192,0,0,1-.192-.192V.576A.192.192,0,0,1,3.576.384H6.453v.767a.384.384,0,0,0,.384.384H7.6Z" transform="translate(8.069 11.966)" fill="current"></path><path id="Path_22245" data-name="Path 22245" d="M15.621,23.276C11.349,23.276,8,20.913,8,17.9a.9.9,0,1,1,1.793,0c0,1.946,2.667,3.586,5.828,3.586a.9.9,0,0,1,0,1.793Z" transform="translate(-2.759 -7.724)" fill="none" stroke="current" stroke-miterlimit="10" stroke-width="1"></path></g></svg>