<svg width="26" height="26" viewBox="0 0 26 26" fill="#787878"><g id="RPA-process" transform="translate(-54.917 -26.001)"><g id="Group_9118" data-name="Group 9118" transform="translate(54.917 26.001)"><path id="Path_22242" data-name="Path 22242" d="M60.216,38.943v.334l2.008.263a.2.2,0,0,1,.187.176,4.535,4.535,0,0,0,.121.494,4.421,4.421,0,0,0,.184.5.18.18,0,0,1-.068.218l-1.589,1.107.382.577,1.892-.65a.238.238,0,0,1,.257.065c.123.132.255.259.392.38s.292.242.442.348a.177.177,0,0,1,.068.218l-.743,1.655.66.332,1.266-1.387a.237.237,0,0,1,.258-.056c.178.059.366.112.558.157H66.5a5.61,5.61,0,0,0,.576.106.207.207,0,0,1,.182.161l.3,1.757h.763l.3-1.757a.209.209,0,0,1,.2-.162c.187-.027.376-.062.565-.106l.011,0c.193-.045.38-.1.558-.159a.234.234,0,0,1,.248.059l1.268,1.387.66-.332-.743-1.655a.178.178,0,0,1,.075-.224A5.1,5.1,0,0,0,71.9,42.4a5.012,5.012,0,0,0,.4-.387.241.241,0,0,1,.25-.058l1.892.65.383-.577-1.59-1.107a.177.177,0,0,1-.064-.228,4.276,4.276,0,0,0,.182-.488,4.463,4.463,0,0,0,.123-.508.2.2,0,0,1,.184-.159l2.008-.265v-.667l-2.008-.263a.206.206,0,0,1-.187-.178,4.166,4.166,0,0,0-.119-.491,4.859,4.859,0,0,0-.185-.5.178.178,0,0,1,.068-.218l1.589-1.107-.381-.577-1.892.65a.235.235,0,0,1-.255-.065,5.428,5.428,0,0,0-.392-.379c-.141-.123-.291-.24-.444-.349a.178.178,0,0,1-.062-.228l.74-1.646-.661-.333-1.264,1.389a.24.24,0,0,1-.26.056c-.178-.059-.365-.112-.558-.157l-.007,0c-.191-.045-.383-.081-.574-.108a.205.205,0,0,1-.184-.161l-.3-1.755h-.763l-.3,1.757a.209.209,0,0,1-.2.162c-.187.027-.376.062-.563.106l-.011,0c-.193.045-.38.1-.558.159a.242.242,0,0,1-.248-.059l-1.266-1.389-.66.333.743,1.655a.178.178,0,0,1-.075.223,5.061,5.061,0,0,0-.433.343,5.293,5.293,0,0,0-.4.387.241.241,0,0,1-.251.059l-1.892-.652-.382.578,1.589,1.107a.176.176,0,0,1,.064.226,3.958,3.958,0,0,0-.18.488l0,.006a4.2,4.2,0,0,0-.119.5.208.208,0,0,1-.185.159l-2.008.265Zm7.724-8.665a10.645,10.645,0,0,1,7.007,2.538,7.917,7.917,0,0,1,0,12.253,10.945,10.945,0,0,1-14.015,0,7.917,7.917,0,0,1,0-12.253A10.647,10.647,0,0,1,67.939,30.278Zm12.89-2.215-2.574,1.694a.24.24,0,0,1-.307-.037.172.172,0,0,1-.043-.129l.014-1.5H55.356v12.2a.221.221,0,0,1-.439,0V27.9a.207.207,0,0,1,.219-.192H77.924l.014-1.517A.206.206,0,0,1,78.157,26a.243.243,0,0,1,.132.039l2.542,1.719a.175.175,0,0,1,.039.268ZM55,49.938l2.574-1.7a.24.24,0,0,1,.307.037.178.178,0,0,1,.045.131l-.014,1.5H80.48v-12.2a.22.22,0,0,1,.437,0V50.1a.207.207,0,0,1-.219.192H57.91L57.9,51.811a.207.207,0,0,1-.219.19.236.236,0,0,1-.132-.041L55,50.242a.177.177,0,0,1-.039-.268ZM70.075,29.28a.223.223,0,0,0,.242-.114.19.19,0,0,0-.16-.262c-.136-.022-.307-.055-.44-.065a.244.244,0,0,0-.159.033c-.162.106-.1.312.095.346Zm1.656.4a.232.232,0,0,0,.275-.1.185.185,0,0,0-.128-.256l-.423-.125c-.251-.087-.4.271-.157.357C71.437,29.6,71.589,29.633,71.731,29.676Zm1.567.614c.225.117.46-.175.218-.334-.134-.064-.271-.125-.407-.184-.307-.108-.422.263-.193.344Zm1.443.814c.232.153.494-.154.264-.306-.118-.078-.239-.156-.36-.231-.219-.143-.492.157-.25.315C74.5,30.956,74.632,31.032,74.741,31.1Zm1.284,1c.21.182.513-.093.314-.268l-.316-.274a.225.225,0,0,0-.371.134.181.181,0,0,0,.068.142C75.825,31.922,75.925,32.011,76.025,32.1Zm1.1,1.154c.182.212.521-.03.357-.221-.086-.106-.175-.212-.266-.315-.169-.2-.521.031-.346.235C76.955,33.052,77.041,33.154,77.123,33.255Zm.884,1.287c.095.206.512.091.39-.171-.066-.117-.135-.232-.207-.346-.159-.231-.522-.017-.383.185C77.875,34.32,77.943,34.43,78.007,34.543Zm.649,1.39c.119.263.51.087.415-.118q-.067-.185-.144-.369c-.112-.246-.512-.089-.41.132Q78.59,35.753,78.656,35.933Zm.4,1.459c.062.267.485.17.433-.059-.02-.128-.05-.259-.078-.385-.057-.248-.485-.171-.43.075C79.006,37.144,79.034,37.27,79.052,37.392Zm.139,1.5c0,.249.439.249.439,0,0-.131-.005-.262-.011-.393,0-.232-.439-.256-.439.017C79.188,38.639,79.191,38.764,79.191,38.89Zm-.119,1.5c-.054.232.376.309.43.07.028-.128.043-.271.061-.4.043-.185-.312-.33-.428-.076C79.106,40.1,79.091,40.259,79.072,40.388Zm-.38,1.464c-.057.123.091.273.243.246a.211.211,0,0,0,.176-.134c.045-.125.084-.249.123-.376.064-.276-.373-.316-.423-.1Zm-.631,1.4c-.121.265.3.371.394.165l.187-.354c.114-.248-.3-.374-.4-.153C78.184,43.022,78.123,43.134,78.061,43.248Zm-.868,1.294c-.162.189.175.435.36.218.086-.108.168-.215.248-.324.155-.228-.228-.412-.371-.206Zm-1.084,1.166c-.2.173.11.446.319.263l.3-.288c.164-.143-.061-.433-.308-.271C76.315,45.5,76.212,45.613,76.109,45.708Zm-1.271,1.009c-.225.148.032.457.269.3.118-.081.234-.162.348-.246.235-.206-.111-.443-.284-.291C75.062,46.562,74.95,46.64,74.837,46.716Zm-1.432.828c-.262.139-.02.457.212.335.13-.062.262-.129.387-.2.244-.129.018-.457-.223-.33C73.657,47.419,73.532,47.483,73.406,47.544Zm-1.562.628c-.278.1-.1.449.155.358.139-.044.276-.092.414-.142.259-.09.107-.451-.168-.354C72.113,48.083,71.979,48.129,71.844,48.172Zm-1.649.411a.193.193,0,1,0,.087.374c.146-.025.291-.053.435-.084.26-.045.2-.426-.1-.373C70.475,48.531,70.335,48.559,70.195,48.584Zm-1.7.186a.193.193,0,1,0,.014.383c.15,0,.3-.016.453-.027.262,0,.273-.382-.039-.382C68.775,48.755,68.633,48.765,68.49,48.769Zm-1.717-.041a.193.193,0,1,0-.053.38c.148.016.3.023.453.034.324,0,.283-.383.028-.383C67.059,48.752,66.916,48.741,66.773,48.729Zm-1.69-.267c-.312-.055-.364.326-.109.371l.433.09c.292.051.366-.326.093-.374Zm-1.623-.491c-.282-.1-.43.263-.173.352.135.051.273.1.412.148.271.1.41-.27.16-.357Zm-1.519-.7c-.255-.134-.471.2-.232.324.127.069.253.137.382.2.241.126.473-.2.219-.332C62.186,47.4,62.063,47.337,61.942,47.27Zm-1.378-.9c-.185-.162-.494.109-.308.273.1.089.251.19.366.268.243.161.492-.156.273-.3C60.783,46.536,60.672,46.456,60.563,46.373Zm-1.207-1.068c-.234-.2-.508.1-.333.249.1.1.194.2.3.293.219.192.51-.1.321-.26C59.544,45.5,59.449,45.4,59.356,45.306Zm-1.009-1.214c-.144-.212-.524-.019-.373.2.073.111.16.223.242.329a.219.219,0,0,0,.132.08c.2.036.333-.145.23-.293C58.5,44.305,58.419,44.2,58.347,44.091Zm-.785-1.334c-.1-.224-.515-.092-.4.148Zm-.544-1.425a.219.219,0,0,0-.246-.142.193.193,0,0,0-.178.235,3.359,3.359,0,0,0,.118.377c.125.274.508.086.419-.109C57.092,41.576,57.051,41.453,57.019,41.333Zm-.285-1.481a.221.221,0,0,0-.437.037c.012.128.028.259.048.387.064.278.485.168.435-.05C56.762,40.1,56.744,39.977,56.734,39.852Zm-.029-1.5c0-.279-.437-.246-.437-.022-.009.131-.014.26-.018.39,0,.262.437.251.437.008C56.691,38.6,56.7,38.475,56.705,38.351Zm.232-1.487c.057-.254-.373-.321-.428-.08-.03.128-.061.254-.086.383-.055.243.383.313.43.069Zm.488-1.439c.107-.232-.3-.371-.408-.139-.055.12-.1.246-.152.369-.086.187.241.382.4.142C57.326,35.677,57.374,35.548,57.425,35.425Zm.736-1.358c.13-.19-.189-.415-.374-.2-.078.114-.15.235-.221.352-.143.207.235.4.389.176Zm.963-1.242c.182-.21-.178-.43-.344-.237l-.271.31c-.169.2.185.423.355.226C58.948,33.023,59.036,32.923,59.125,32.825Zm1.168-1.1c.217-.192-.109-.447-.3-.281l-.323.27c-.2.179.107.449.31.271Zm1.344-.934c.246-.129-.018-.466-.241-.321-.125.072-.251.151-.371.229-.234.153.032.457.26.307C61.4,30.933,61.519,30.861,61.637,30.791Zm1.491-.745a.186.186,0,0,0,.114-.235.229.229,0,0,0-.3-.111c-.134.056-.269.114-.4.175-.273.143-.016.455.205.338C62.87,30.155,63,30.1,63.127,30.046Zm1.6-.536c.314-.109.1-.444-.125-.368-.143.037-.287.078-.428.12-.291.1-.1.447.144.362C64.457,29.583,64.6,29.544,64.732,29.509Zm1.679-.315a.194.194,0,1,0-.061-.38c-.148.019-.3.037-.442.061a.194.194,0,1,0,.077.377C66.126,29.23,66.269,29.21,66.411,29.195Zm1.528-.474-.255,0a.24.24,0,0,0-.121.036c-.173.112-.087.348.132.348s.451,0,.674,0a.193.193,0,1,0,.014-.384Zm0,7.482a3.36,3.36,0,0,1,2.214.8,2.5,2.5,0,0,1,0,3.877,3.463,3.463,0,0,1-4.434,0l-.012-.011A2.5,2.5,0,0,1,65.721,37,3.366,3.366,0,0,1,67.939,36.2Z" transform="translate(-54.917 -26.001)" fill="current"></path></g></g></svg>